<?xml version="1.0" encoding="UTF-8" standalone="no"?>
<!-- Created with Inkscape (http://www.inkscape.org/) -->

<svg
   width="512"
   height="512"
   viewBox="0 0 135.46667 135.46667"
   version="1.1"
   id="svg1"
   xml:space="preserve"
   xmlns:xlink="http://www.w3.org/1999/xlink"
   xmlns="http://www.w3.org/2000/svg"
   xmlns:svg="http://www.w3.org/2000/svg"><defs
     id="defs1"><linearGradient
       id="linearGradient1"><stop
         style="stop-color:#ffd600;stop-opacity:1;"
         offset="0"
         id="stop1" /><stop
         style="stop-color:#ffff00;stop-opacity:1;"
         offset="0.62423831"
         id="stop2" /></linearGradient><linearGradient
       xlink:href="#linearGradient1"
       id="linearGradient2"
       x1="60.550922"
       y1="135.46667"
       x2="210.38242"
       y2="135.46667"
       gradientUnits="userSpaceOnUse" /><linearGradient
       xlink:href="#linearGradient1"
       id="linearGradient3"
       gradientUnits="userSpaceOnUse"
       x1="60.550922"
       y1="135.46667"
       x2="210.38242"
       y2="135.46667" /></defs><g
     id="layer1"><path
       id="path1"
       style="fill:url(#linearGradient3);stroke:none;stroke-width:6.35;stroke-dasharray:none"
       d="M 43.773556,11.986865 C 23.278549,11.048216 13.13639,24.534688 7.4708618,39.857515 5.3032128,45.719354 4.0971767,51.785772 3.5331177,57.954602 3.2381857,61.180102 3.118918,64.43361 3.129008,67.70026 h -0.00103 c 0,16.50424 3.6513302,30.510577 10.762134,40.65643 8.239649,11.75371 19.401409,16.95061 33.672364,14.62753 1.359874,-0.22141 2.71059,-0.46152 4.052465,-0.72037 a 2.7138436,2.7138436 0 0 1 0.0801,-1.02732 L 62.116105,88.562036 A 5.4276875,5.4276875 0 0 0 57.014091,81.234318 H 19.020028 A 5.4276875,5.4276875 0 0 1 14.786694,72.387313 L 68.101786,17.456299 c -4.844281,-1.618738 -9.80975,-3.000284 -14.893664,-4.147034 -3.367554,-0.759566 -6.506708,-1.188307 -9.434566,-1.3224 z m 29.469519,7.293612 a 2.7138436,2.7138436 0 0 1 -0.05478,0.241329 l -10.42107,32.674491 a 5.4276875,5.4276875 0 0 0 5.102014,7.327718 h 37.994071 a 5.4276875,5.4276875 0 0 1 4.23333,8.847006 L 59.496627,120.50427 C 82.780873,114.58421 103.24058,102.8452 121.12026,86.185954 136.07169,72.250134 136.0588,63.29171 121.1988,49.28278 107.02954,35.923353 90.988971,25.95031 73.243075,19.280477 Z" /><g
       id="g1"
       transform="matrix(6.1695363,0,0,6.1695363,41.692935,64.474426)"
       style="stroke-width:0.0428854"><rect
         fill="none"
         height="24"
         width="24"
         id="rect1"
         x="0"
         y="0"
         style="stroke-width:0.0428854" /></g><path
       d="m 19.020231,81.234574 a 5.4276875,5.4276875 0 0 1 -4.233703,-8.84714 L 68.520656,17.024979 a 2.7138436,2.7138436 0 0 1 4.66777,2.49675 l -10.42115,32.674695 a 5.4276875,5.4276875 0 0 0 5.10207,7.32739 h 37.993724 a 5.4276875,5.4276875 0 0 1 4.2337,8.84714 L 56.362556,123.73338 a 2.7138436,2.7138436 0 0 1 -4.66777,-2.49674 l 10.42117,-32.674676 a 5.4276875,5.4276875 0 0 0 -5.10208,-7.32739 z"
       id="path2"
       style="display:none;fill:#ffffff;fill-opacity:1;stroke-width:0.264582" /><path
       fill-rule="evenodd"
       clip-rule="evenodd"
       fill="none"
       stroke="#000000"
       stroke-width="0.529166"
       stroke-linecap="round"
       stroke-linejoin="round"
       stroke-miterlimit="10"
       d="m 3.1289644,67.700313 c -0.01009,-3.26665 0.109428,-6.52008 0.40436,-9.74558 0.564059,-6.16883 1.769723,-12.23553 3.937372,-18.097369 C 13.945586,22.345561 26.267535,7.2325104 53.207967,13.309041 c 25.86339,5.833858 48.667203,17.754595 67.990763,35.973732 14.86,14.00893 14.87293,22.96712 -0.0785,36.90294 C 100.24692,105.63426 75.857577,118.37717 47.562487,122.98417 33.291532,125.30725 22.129747,120.1104 13.890098,108.35669 6.7792944,98.210833 3.1278894,84.204553 3.1278894,67.700313 Z"
       id="path3"
       style="display:none;fill:url(#linearGradient2);stroke:none;stroke-width:6.35;stroke-dasharray:none" /></g></svg>
